<svg width="24" height="24" viewBox="0 0 24 24" fill="none" xmlns="http://www.w3.org/2000/svg">
<rect width="24" height="24" fill="white" fill-opacity="0.01"/>
<path fill-rule="evenodd" clip-rule="evenodd" d="M12.9376 2.18665C13.235 2.30988 13.5052 2.49049 13.7328 2.71817L21.2824 10.2665C21.5102 10.4941 21.691 10.7644 21.8143 11.0619C21.9377 11.3594 22.0011 11.6783 22.0011 12.0003C22.0011 12.3224 21.9377 12.6413 21.8143 12.9388C21.691 13.2363 21.5102 13.5065 21.2824 13.7341L13.7328 21.2825C13.5052 21.5102 13.235 21.6908 12.9376 21.814C12.6402 21.9372 12.3215 22.0006 11.9996 22.0006C11.6777 22.0006 11.3589 21.9372 11.0616 21.814C10.7642 21.6908 10.494 21.5102 10.2664 21.2825L2.71683 13.7341C2.48897 13.5065 2.3082 13.2363 2.18486 12.9388C2.06153 12.6413 1.99805 12.3224 1.99805 12.0003C1.99805 11.6783 2.06153 11.3594 2.18486 11.0619C2.3082 10.7644 2.48897 10.4941 2.71683 10.2665L10.2664 2.71817C10.494 2.49049 10.7642 2.30988 11.0616 2.18665C11.3589 2.06343 11.6777 2 11.9996 2C12.3215 2 12.6402 2.06343 12.9376 2.18665ZM11.1341 14.0892C11.3636 14.3187 11.675 14.4477 11.9996 14.4477C12.3242 14.4477 12.6355 14.3187 12.8651 14.0892C13.0946 13.8596 13.2236 13.5483 13.2236 13.2237V7.10373C13.2236 6.77911 13.0946 6.46778 12.8651 6.23824C12.6355 6.00869 12.3242 5.87974 11.9996 5.87974C11.675 5.87974 11.3636 6.00869 11.1341 6.23824C10.9046 6.46778 10.7756 6.77911 10.7756 7.10373V13.2237C10.7756 13.5483 10.9046 13.8596 11.1341 14.0892ZM11.1341 17.7612C11.3636 17.9907 11.675 18.1197 11.9996 18.1197C12.3242 18.1197 12.6355 17.9907 12.8651 17.7612C13.0946 17.5316 13.2236 17.2203 13.2236 16.8957C13.2236 16.5711 13.0946 16.2597 12.8651 16.0302C12.6355 15.8006 12.3242 15.6717 11.9996 15.6717C11.675 15.6717 11.3636 15.8006 11.1341 16.0302C10.9046 16.2597 10.7756 16.5711 10.7756 16.8957C10.7756 17.2203 10.9046 17.5316 11.1341 17.7612Z" fill="#DB4435"/>
</svg>
